<svg xmlns="http://www.w3.org/2000/svg" version="1.1" xmlns:xlink="http://www.w3.org/1999/xlink" xmlns:svgjs="http://svgjs.dev/svgjs" viewBox="0 0 800 800" opacity="0.27"><defs><linearGradient x1="50%" y1="0%" x2="50%" y2="100%" id="uundulate-grad"><stop stop-color="hsl(37, 99%, 67%)" stop-opacity="1" offset="45%"></stop><stop stop-color="hsl(316, 73%, 52%)" stop-opacity="1" offset="100%"></stop></linearGradient></defs><g stroke-width="1" stroke="url(#uundulate-grad)" fill="none"><path d="M1732.6181680235572 -530.168362043614C1959.3286493258606 274.5995047231545 2638.5803969147464 1407.6376683129783 2155.2284735450885 2089.8545545650777C1671.876550175431 2772.071440817177 145.10565762465967 3120.6589422334064 -587.4710641507954 2744.4726919664618C-1320.0477859262508 2368.286441699517 -1193.1786722104769 1090.370086072729 -1361.1397909771035 284.1605532837398C-1529.1009097437304 -522.0489795052495 -1611.0100183652057 -641.8209972051161 -1393.6844342306063 -1125.3330654206939C-1176.3588500960063 -1608.845133636271 -830.6233616153331 -1901.7602615479732 -317.9769871310318 -2036.697374151037C194.66938735326949 -2171.634486754101 639.8108393034995 -2086.89141677112 1067.0181632940375 -1773.0312059154064C1494.2254872845756 -1459.1709950596928 1505.9076867212539 -1334.9362288103825 1732.6181680235572 -530.168362043614C1959.3286493258606 274.5995047231545 2638.5803969147464 1407.6376683129783 2155.2284735450885 2089.8545545650777 "></path><path d="M1715.3116791423413 -518.0882546346413C1939.0778684796796 276.22808139489644 2609.5081648011774 1394.5514636393978 2132.433539137619 2067.9083903297815C1655.358913474061 2741.2653170201656 148.41621433303953 3085.325708028391 -574.6465240427342 2714.0249934792C-1297.7092624185084 2342.724278930007 -1172.4877995302118 1081.4042396100613 -1338.2676050661032 285.66496049365605C-1504.0474106019947 -510.07431862274916 -1584.8927645660483 -628.290855573267 -1370.3895906150149 -1105.5235462795513C-1155.8864166639814 -1582.7562369858356 -814.6409994622777 -1871.8672723272557 -308.65237010114924 -2005.0519548965135C197.33625925997922 -2138.2366374657718 636.6966533926739 -2054.594126833219 1058.3558303184 -1744.810022611995C1480.0150072441256 -1435.0259183907713 1491.5454898050025 -1312.404590664179 1715.3116791423413 -518.0882546346413C1939.0778684796796 276.22808139489644 2609.5081648011774 1394.5514636393978 2132.433539137619 2067.9083903297815 "></path><path d="M1698.0047019798749 -506.0081472256693C1918.826599352249 277.8566580666379 2580.4354444063574 1381.4652589658167 2109.638116448899 2045.9622260944852C1638.840788491441 2710.4591932231524 151.72628276016962 3049.992473823376 -561.822472215923 2683.5772949919365C-1275.3712271920158 2317.162116160497 -1151.7974151311969 1072.4383931473922 -1315.395907436353 287.1693677035719C-1478.994399741509 -498.0996577402493 -1558.7759990481409 -614.7607139414181 -1347.0952352806735 -1085.7140271384092C-1135.4144715132063 -1556.6673403354 -798.6591255904725 -1841.9742831065382 -299.3282413525169 -1973.40653564199C200.00264288543895 -2104.838788177442 633.5819792005982 -2022.2968368953177 1049.693009061512 -1716.5888393085838C1465.8040389224257 -1410.8808417218497 1477.1828046075016 -1289.872952517976 1698.0047019798749 -506.0081472256693C1918.826599352249 277.8566580666379 2580.4354444063574 1381.4652589658167 2109.638116448899 2045.9622260944852 "></path><path d="M1680.6978774052996 -493.9280398166968C1898.5754828127083 279.4852347383794 2551.362876599429 1368.379054292236 2086.8428463480705 2024.016061859189C1622.322816096711 2679.653069426142 155.03650377519034 3014.6592396183614 -548.9982678012211 2653.1295965046747C-1253.0330393776326 2291.599953390988 -1131.1068781442914 1063.472546684724 -1292.524057218712 288.67377491348725C-1453.9412362931325 -486.124996857749 -1532.6590809423428 -601.230572309569 -1323.8007273584417 -1065.9045079972666C-1114.9423737745406 -1530.5784436849644 -782.6770991307767 -1812.0812938858207 -290.0039600159937 -1941.7611163874667C202.6691790987893 -2071.4409388891127 630.4674575964132 -1989.9995469574164 1041.030340392515 -1688.3676560051724C1451.5932231886163 -1386.7357650529284 1462.8202719978908 -1267.341314371773 1680.6978774052996 -493.9280398166968C1898.5754828127083 279.4852347383794 2551.362876599429 1368.379054292236 2086.8428463480705 2024.016061859189 "></path><path d="M1663.391266453771 -481.84793240772433C1878.3245798962148 281.11381141012134 2522.2905224155475 1355.292849618656 2064.0477898702884 2002.0698976238928C1605.8050573250284 2648.8469456291296 158.3469384132577 2979.326005413347 -536.1738497634724 2622.681898017413C-1230.6946379402027 2266.037790621478 -1110.416127534339 1054.5067002220562 -1269.6519933780241 290.17818212340353C-1428.8878592217093 -474.1503359752487 -1506.5419492134977 -587.7004306777199 -1300.506005813163 -1046.0949888561245C-1094.4700624128282 -1504.4895470345289 -766.6948590480338 -1782.1883046651035 -280.6794650564236 -1910.1156971329433C205.33592893518653 -2038.0430896007833 627.353149615275 -1957.7022570195154 1032.3678853465644 -1660.146472701761C1437.3826210778539 -1362.5906883840066 1448.4579530113278 -1244.8096762255695 1663.391266453771 -481.84793240772433C1878.3245798962148 281.11381141012134 2522.2905224155475 1355.292849618656 2064.0477898702884 2002.0698976238928 "></path><path d="M1646.084502914352 -469.76782499875185C1858.0735243918307 282.7423880818628 2493.2180156437753 1342.2066449450745 2041.2525808046153 1980.1237333885956C1589.2871459654548 2618.040821832117 161.65722046343467 2943.992771208331 -523.3495843136143 2592.2341995301495C-1208.3563890906632 2240.475627851968 -1089.7255295122773 1045.5408537593871 -1246.780082125227 291.68258933331936C-1403.8346347381766 -462.17567509274886 -1480.4249700725434 -574.170289045871 -1277.2114368557748 -1026.2854697149821C-1073.9979036390062 -1478.4006503840933 -750.7127715531817 -1752.2953154443862 -271.3551226847442 -1878.47027787842C208.00252618369313 -2004.6452403124538 624.2386890462458 -1925.4049670816144 1023.7052777127237 -1631.9252893983498C1423.1718663792008 -1338.4456117150853 1434.0954814368733 -1222.2780380793665 1646.084502914352 -469.76782499875185C1858.0735243918307 282.7423880818628 2493.2180156437753 1342.2066449450745 2041.2525808046153 1980.1237333885956 "></path><path d="M1628.7778309276673 -457.68771758977937C1837.822560440181 284.3709647536043 2464.1456004247375 1329.1204402714943 2018.457463291677 1958.1775691533003C1572.769326158616 2587.234698035106 164.967594066346 2908.6595370033165 -510.5252273110218 2561.7865010428877C-1186.0180486883896 2214.913465082459 -1069.0348399374811 1036.575007296719 -1223.9080793196954 293.1869965432352C-1378.7813187019096 -450.20101421024856 -1454.3078993788545 -560.6401474140216 -1253.9167763456521 -1006.4759505738398C-1053.5256533124498 -1452.311753733658 -734.7305925055953 -1722.4023262236688 -262.0306887603306 -1846.8248586238965C210.66921498493434 -1971.2473910241245 621.1243200299518 -1893.1076771437133 1015.0427616316169 -1603.7041060949384C1408.9612032332816 -1314.3005350461635 1419.7331014151537 -1199.746399933163 1628.7778309276673 -457.68771758977937C1837.822560440181 284.3709647536043 2464.1456004247375 1329.1204402714943 2018.457463291677 1958.1775691533003 "></path><path d="M1611.4709758355139 -445.60761018080666C1817.5714133830625 285.99954142534625 2435.073002100231 1316.0342355979137 1995.6621626732694 1936.231404918004C1556.2513232463084 2556.4285742380944 168.2777845637886 2873.326302798302 -497.7010534138981 2531.338802555625C-1163.6798913915845 2189.351302312949 -1048.3443334681535 1027.6091608340512 -1201.0362596196326 294.691403753151C-1353.7281857711114 -438.22635332774826 -1428.1910117906345 -547.1100057821725 -1230.6222989409985 -986.6664314326972C-1033.0535860913624 -1426.2228570832222 -718.7485965634775 -1692.5093370029513 -252.7064379413855 -1815.179439369373C213.33572068070657 -1937.849541735795 618.0097679081882 -1860.810387205812 1006.3800624450414 -1575.482922791527C1394.7503569818946 -1290.1554583772422 1405.3705382879648 -1177.21476178696 1611.4709758355139 -445.60761018080666C1817.5714133830625 285.99954142534625 2435.073002100231 1316.0342355979137 1995.6621626732694 1936.231404918004 "></path><path d="M1594.164364883985 -433.5275027718342C1797.320510466569 287.6281180970882 2406.0006479163494 1302.9480309243331 1972.8671061954874 1914.2852406827078C1539.7335644746254 2525.622450441082 171.5882192018562 2837.9930685932877 -484.87663537614935 2500.8911040683633C-1141.3414899541544 2163.78913954344 -1027.6535828582012 1018.6433143713825 -1178.1641957789448 296.1958109630673C-1328.6748086996881 -426.25169244524795 -1402.0738800617896 -533.5798641503231 -1207.3275773957198 -966.8569122915551C-1012.5812747296497 -1400.1339604327866 -702.7663564807347 -1662.6163477822338 -243.38194298181543 -1783.5340201148497C216.0024705171038 -1904.4516924474656 614.8954599270505 -1828.513097267911 997.7176073990913 -1547.2617394881158C1380.5397548711317 -1266.0103817083204 1391.0082193014014 -1154.6831236407568 1594.164364883985 -433.5275027718342C1797.320510466569 287.6281180970882 2406.0006479163494 1302.9480309243331 1972.8671061954874 1914.2852406827078 "></path><path d="M1576.8575097918315 -421.4473953628619C1777.06936340945 289.2566947688297 2376.9280495918424 1289.861826250752 1950.0718055770803 1892.3390764474107C1523.2155615623174 2494.8163266440697 174.89840969929878 2802.6598343882715 -472.0524614790256 2470.4434055811007C-1119.0033326573496 2138.226976773929 -1006.9630763888738 1009.6774679087139 -1155.292376078882 297.7002181729831C-1303.6216757688899 -414.2770315627479 -1375.9569924735695 -520.0497225184743 -1184.033099991066 -947.0473931504127C-992.1092075085623 -1374.0450637823512 -686.784360538617 -1632.7233585615165 -234.05769216287035 -1751.8886008603263C218.66897621287603 -1871.053843159136 611.7809078052869 -1796.21580733001 989.0549082125158 -1519.0405561847044C1366.3289086197442 -1241.8653050393991 1376.645656174213 -1132.1514854945535 1576.8575097918315 -421.4473953628619C1777.06936340945 289.2566947688297 2376.9280495918424 1289.861826250752 1950.0718055770803 1892.3390764474107 "></path><path d="M1559.5507767699905 -409.3675015769363C1756.818338422644 290.88505781752474 2347.855573337649 1276.7754079541246 1927.2766270289853 1870.392698589068C1506.6976807203223 2464.0099892240114 178.20872226705342 2767.326386560211 -459.22816551158917 2439.995493470791C-1096.665053290232 2112.664600381373 -986.2724478492339 1000.7114078229988 -1132.4204343085066 299.20441175985206C-1278.5684207677791 -402.3025843032947 -1349.839982815037 -506.519794509672 -1160.7385005160995 -927.2380876323173C-971.6370182171622 -1347.9563807549625 -670.8022425261867 -1602.8305829638462 -224.733319273613 -1720.2433952288497C221.33560397896076 -1837.6562074938536 608.6664777538367 -1763.9187310151556 980.3923310962527 -1490.81958650434C1352.1181844386692 -1217.7204419935244 1362.2832151173366 -1109.6200609713974 1559.5507767699905 -409.3675015769363C1756.818338422644 290.88505781752474 2347.855573337649 1276.7754079541246 1927.2766270289853 1870.392698589068 "></path><path d="M1542.2441658184616 -397.28718054491674C1736.5674355061506 292.5138481123131 2318.783219153767 1263.6894169035909 1904.4815705512033 1848.446747976819C1490.1799219486397 2433.204079050047 181.519156905121 2731.9933659782437 -446.40374747384044 2409.5480086065772C-1074.3266518528021 2087.10265123491 -965.5816972392815 991.7457749833775 -1109.5483704678186 300.70903259281476C-1253.5150436963559 -390.3277097977475 -1323.722851086192 -492.989439254776 -1137.4437789708209 -907.428354868128C-951.1647068554497 -1321.86727048148 -654.8200024434439 -1572.9373801200818 -215.40882431404293 -1688.5977623512795C224.00235381535822 -1804.2581445824771 605.5521697726986 -1731.6212274542077 971.7298760503027 -1462.5981895778818C1337.9075823279063 -1193.575151701556 1347.9208961307731 -1087.088209202147 1542.2441658184616 -397.28718054491674C1736.5674355061506 292.5138481123131 2318.783219153767 1263.6894169035909 1904.4815705512033 1848.446747976819 "></path><path d="M1524.9373412438867 -385.2070731359447C1716.3163189666102 294.14242478405504 2289.7106513468384 1250.6032122300098 1881.6863004503743 1826.500583741522C1473.6619495539103 2402.3979552530345 184.82937792014172 2696.6601317732275 -433.5795430591386 2379.1003101193137C-1051.988464038419 2061.5404884654 -944.8911602523759 982.7799285207088 -1086.6765202501779 302.21343980273105C-1228.4618802479795 -378.3530489152474 -1297.6059329803938 -479.4592976229269 -1114.149271048589 -887.6188357269857C-930.6926091167841 -1295.7783738310445 -638.8379759837482 -1543.0443908993643 -206.08454297751973 -1656.952343096756C226.66889002870857 -1770.8602952941478 602.4376481685131 -1699.3239375163066 963.0672073813053 -1434.3770062744704C1323.6967665940974 -1169.4300750326345 1333.5583635211628 -1064.556571055944 1524.9373412438867 -385.2070731359447C1716.3163189666102 294.14242478405504 2289.7106513468384 1250.6032122300098 1881.6863004503743 1826.500583741522 "></path><path d="M1507.6306082220458 -373.126965726972C1696.0652939798042 295.7710014557965 2260.6381750926444 1237.5170075564292 1858.8911219022793 1804.5544195062262C1457.1440687119148 2371.591831456023 188.13969048789681 2661.326897568213 -420.75524709170213 2348.652611632051C-1029.6501846713013 2035.97832569589 -924.2005317127359 973.8140820580406 -1063.8045784798023 303.7178470126464C-1203.4086252468687 -366.3783880327471 -1271.4889233218614 -465.929155991078 -1090.8546715736227 -867.8093165858434C-910.2204198253839 -1269.689477180609 -622.8558579713178 -1513.151401678647 -196.76017008826238 -1625.3069238422327C229.33551779479308 -1737.4624460058183 599.3232181170624 -1667.0266475784056 954.4046302650427 -1406.1558229710593C1309.486042413022 -1145.284998363713 1319.195922464287 -1042.0249329097405 1507.6306082220458 -373.126965726972C1696.0652939798042 295.7710014557965 2260.6381750926444 1237.5170075564292 1858.8911219022793 1804.5544195062262 "></path><path d="M1490.3239057177825 -361.0469498707339C1675.8142995105768 297.3994865748041 2231.565729356028 1224.4307113301143 1836.095973871763 1782.6081637181956C1440.6262183874974 2340.7856161062773 191.45003357323003 2625.9935718104643 -407.9309206066878 2318.204821592055C-1007.3118747866058 2010.4160713736464 -903.5098726555179 964.8481440426381 -1040.9326061918491 305.2221626698283C-1178.35533972818 -354.4038187029812 -1245.3718831457509 -452.39910591196303 -1067.5600415810782 -847.9998889974354C-889.7482000164059 -1243.6006720829077 -606.8737094413094 -1483.258504010664 -187.43576668142668 -1593.6615961404436C232.00217607845616 -1704.0646882702233 596.2088185831899 -1634.7294491932387 945.7420836663578 -1377.9347312203822C1295.2753487495252 -1121.1400132475255 1304.8335119249887 -1019.4933863162718 1490.3239057177825 -361.0469498707339C1675.8142995105768 297.3994865748041 2231.565729356028 1224.4307113301143 1836.095973871763 1782.6081637181956 "></path><path d="M1473.0171726959416 -348.9668424617614C1655.5632745237704 299.02806324654557 2202.493253101834 1211.3445066565332 1813.3007953236684 1760.6619994828989C1424.1083375455023 2309.979492309265 194.76034614098512 2590.660337605449 -395.10662463925155 2287.757123104793C-984.9735954194882 1984.8539086041364 -882.8192441158781 955.8822975799694 -1018.0606644214736 306.72656987974415C-1153.3020847270693 -342.4291578204811 -1219.2548734872182 -438.8689642801139 -1044.265442106112 -828.190369856293C-869.2760107250058 -1217.5117754324724 -590.8915914288792 -1453.3655147899467 -178.1113937921691 -1562.0161768859202C234.6688038445409 -1670.6668389818938 593.0943885317392 -1602.4321592553376 937.0795065500947 -1349.7135479169708C1281.0646245684502 -1096.9949365786042 1290.4710708681127 -996.9617481700686 1473.0171726959416 -348.9668424617614C1655.5632745237704 299.02806324654557 2202.493253101834 1211.3445066565332 1813.3007953236684 1760.6619994828989 "></path><path d="M1455.7104396741006 -336.88676557036706C1635.3122495369644 300.6566094007094 2173.4207768476394 1198.2582714653745 1790.5056167755733 1738.715804730025C1407.5904567035072 2279.1733379946754 198.0706587087402 2555.3270728828566 -382.2823286718153 2257.3093940999534C-962.6353160523707 1959.2917153170483 -862.1286155762381 946.9164205997231 -995.1887226510983 308.23094657208185C-1128.2488297259586 -330.45452745555895 -1193.1378638286858 -425.3388531658429 -1020.9708426311457 -808.3808812327288C-848.8038214336057 -1191.4229092996147 -574.9094734164489 -1423.4725560868073 -168.78702090291154 -1530.370788148975C237.33543161062585 -1637.2690202111426 589.9799584802886 -1570.1348998350145 928.4169294338321 -1321.4923951311378C1266.8539003873748 -1072.8498904272608 1276.1086298112364 -974.4301405414434 1455.7104396741006 -336.88676557036706C1635.3122495369644 300.6566094007094 2173.4207768476394 1198.2582714653745 1790.5056167755733 1738.715804730025 "></path><path d="M1438.4038287225717 -324.80662764381646C1615.0613466204709 302.285216590029 2144.3484226637584 1185.172097309372 1767.7105602977913 1716.7696710123068C1391.0726979318247 2248.367244715241 201.38109334680757 2519.9938691954194 -369.4579106340666 2226.861726130268C-940.2969146149408 1933.7295830651165 -841.4378649662856 937.9506046546326 -972.3166588104104 309.73538429957625C-1103.1954526545353 -318.47983605548075 -1167.0207320998406 -411.8086810164157 -997.676121085867 -788.5713315740086C-828.3315100718931 -1165.3339821316013 -558.9272333337061 -1393.5795363485117 -159.46252594334146 -1498.7253383768734C240.00218144702308 -1603.8711404052349 586.8656504991504 -1537.8375793795353 919.7544743878816 -1293.2711813101482C1252.6432982766128 -1048.7047832407611 1261.7463108246734 -951.8984718776621 1438.4038287225717 -324.80662764381646C1615.0613466204709 302.285216590029 2144.3484226637584 1185.172097309372 1767.7105602977913 1716.7696710123068 "></path><path d="M1421.0970957007307 -312.726520234844C1594.810321633665 303.9137932617705 2115.275946409564 1172.085892635791 1744.9153817496967 1694.8235067770102C1374.5548170898292 2217.56112091823 204.69140591456267 2484.660634990405 -356.63361466663036 2196.4140276430057C-917.9586352478232 1908.1674202956065 -820.7472364266458 928.9847581919644 -949.4447170400351 311.2397915094916C-1078.1421976534245 -306.50517517298044 -1140.9037224413082 -398.27853938456656 -974.3815216109007 -768.761812432866C-807.8593207804931 -1139.2450854811657 -542.9451153212759 -1363.6865471277945 -150.1381530540839 -1467.07991912235C242.66880921310758 -1570.4732911169056 583.7512204476998 -1505.5402894416343 911.0918972716186 -1265.049998006737C1238.4325740955373 -1024.5597065718396 1247.383869767797 -929.3668337314589 1421.0970957007307 -312.726520234844C1594.810321633665 303.9137932617705 2115.275946409564 1172.085892635791 1744.9153817496967 1694.8235067770102 "></path><path d="M1403.7903626788902 -300.6461686852467C1574.559296646859 305.5426140741374 2086.20347015537 1158.9999321028358 1722.1202032016017 1672.8775866823394C1358.036936247834 2186.7552412618425 208.00171848231753 2449.3276449260156 -343.80931869919414 2165.9665732963686C-895.6203558807058 1882.6055016667224 -800.0566078870058 920.0191558699212 -926.5727752696598 312.7444428600329C-1053.0889426523138 -294.53027014985514 -1114.7867127827758 -384.74815361209244 -951.0869221359344 -748.9520491510989C-787.3871314890931 -1113.1559446901051 -526.9629973088456 -1333.7933137664522 -140.81378016482654 -1435.4342557272016C245.33543697919254 -1537.075197687951 580.6367903962491 -1473.2427553631082 902.429320155356 -1236.8285705627006C1224.2218499144624 -1000.414385762293 1233.0214287109206 -906.8349514446307 1403.7903626788902 -300.6461686852467C1574.559296646859 305.5426140741374 2086.20347015537 1158.9999321028358 1722.1202032016017 1672.8775866823394 "></path><path d="M1386.4835381043144 -288.56630541689924C1554.3081801073185 307.1709466052539 2057.1309023484414 1145.9134832886302 1699.3249331007728 1650.9311783064181C1341.5189638531042 2155.9488733242056 211.31193949733824 2413.9941665803744 -330.98511428449206 2135.5186306684814C-873.2821680663226 1857.0430947565874 -779.3660709001003 911.0530652666275 -903.7009250520189 314.24860592932373C-1028.0357792039374 -282.55585340798007 -1088.6697946769777 -371.2182561208683 -927.7924142137025 -729.1427741505813C-766.9150337504275 -1087.0672921802945 -510.9809708491497 -1303.9005686863597 -131.48949882830357 -1403.7890806133032C248.0019731925429 -1503.6775925402467 577.5222687920639 -1440.945709565832 893.7666514863586 -1208.6076313999142C1210.011034180653 -976.2695532339965 1218.6588961013103 -884.3035574390525 1386.4835381043144 -288.56630541689924C1554.3081801073185 307.1709466052539 2057.1309023484414 1145.9134832886302 1699.3249331007728 1650.9311783064181 "></path><path d="M1369.176927152786 -276.48607593761426C1534.0572771908246 308.7996453473088 2028.0585481645599 1132.8274006853621 1676.5298766229903 1628.985136141434C1325.0012050814216 2125.1428715975067 214.62237413540583 2378.6610544456735 -318.1606962467433 2105.071054251532C-850.9437666288926 1831.4810540573899 -758.675320290148 902.0873408742718 -880.8288612113311 315.75313520955206C-1002.9824021325142 -270.58107045516726 -1062.5526629481326 -357.6879924187067 -904.4976926684237 -709.3331329391267C-746.4427223887149 -1060.9782734595465 -494.9987307664071 -1274.0074573953298 -122.16500386873349 -1372.1435392884673C250.66872302894035 -1470.2796211816049 574.4079608109257 -1408.6482975576184 885.104196440408 -1180.3863260261905C1195.8004320698901 -952.1243544947624 1204.296577114747 -861.7717972225367 1369.176927152786 -276.48607593761426C1534.0572771908246 308.7996453473088 2028.0585481645599 1132.8274006853621 1676.5298766229903 1628.985136141434 "></path><path d="M1351.870163613367 -264.4059685286418C1513.8062216864405 310.4282220190498 1998.9860413927872 1119.7411960117815 1653.7346675573176 1607.0389719061377C1308.483293721848 2094.3367478004943 217.9326561855828 2343.327820240658 -305.33643079688545 2074.623355764269C-828.6055177793532 1805.9188912878803 -737.9847222680861 893.1214944116036 -857.9569499585339 317.25754241946834C-977.9291776489815 -258.6064095726672 -1036.4356838071783 -344.1578507868578 -881.2031237110357 -689.5236137979844C-725.970563614893 -1034.8893768091111 -479.0166432715548 -1244.1144681746123 -112.84066149705404 -1340.498120033944C253.33532027744673 -1436.8817718932753 571.2935002418969 -1376.3510076197174 876.4415888065669 -1152.1651427227791C1181.5896773712375 -927.9792778258409 1189.9341055402929 -839.2401590763335 1351.870163613367 -264.4059685286418C1513.8062216864405 310.4282220190498 1998.9860413927872 1119.7411960117815 1653.7346675573176 1607.0389719061377 "></path><path d="M1334.5634611091036 -252.3258611196693C1493.5552272172126 312.05679869079177 1969.9135956561718 1106.654991338201 1630.9395195268012 1585.092807670842C1291.965443397431 2063.530624003483 221.2429992709158 2307.9945860356434 -292.51210431187087 2044.1756572770073C-806.2672078946575 1780.3567285183708 -717.294063210868 884.155647948935 -835.0849776705804 318.76194962938416C-952.8758921302926 -246.6317486901669 -1010.3186436310676 -330.62770915500846 -857.9084937184912 -669.714094656842C-705.4983438059148 -1008.8004801586754 -463.0344947415465 -1214.221478953895 -103.51625809021834 -1308.8527007794205C256.0019785611096 -1403.4839226049457 568.1791007080244 -1344.0537176818161 867.7790422078824 -1123.9439594193677C1167.3789837077402 -903.8342011569193 1175.5716950009946 -816.7085209301302 1334.5634611091036 -252.3258611196693C1493.5552272172126 312.05679869079177 1969.9135956561718 1106.654991338201 1630.9395195268012 1585.092807670842 "></path><path d="M1317.2567586048408 -240.24575371069682C1473.3042327479848 313.6853753625335 1940.8411499195554 1093.56878666462 1608.1443714962847 1563.1466434355452C1275.447593073014 2032.7245002064706 224.553342356249 2272.6613518306285 -279.6877778268565 2013.7279587897447C-783.928898009962 1754.7945657488608 -696.60340415365 875.1898014862668 -812.213005382627 320.2663568393C-927.8226066116038 -234.6570878076668 -984.201603454957 -317.09756752315934 -834.6138637259469 -649.9045755156997C-685.0261239969367 -982.7115835082399 -447.0523462115382 -1184.3284897331778 -94.19185468338264 -1277.207281524897C258.66863684477266 -1370.0860733166164 565.0647011741519 -1311.756427743915 859.116495609198 -1095.7227761159565C1153.1682900442433 -879.6891244879978 1161.2092844616968 -794.1768827839271 1317.2567586048408 -240.24575371069682C1473.3042327479848 313.6853753625335 1940.8411499195554 1093.56878666462 1608.1443714962847 1563.1466434355452 "></path><path d="M1299.9500255829998 -228.16576837203684C1453.0532077611792 315.3138299639627 1911.768673665361 1080.4824599207268 1585.3491929481902 1541.200357129937C1258.9297122310186 2001.9182543391466 227.8636549240041 2237.3279955553016 -266.8634818594202 1983.2801382321704C-761.5906186428444 1729.2322809090392 -675.9127756140101 866.2238329532861 -789.3410636122516 321.77064197890354C-902.769351610493 -222.682548995479 -958.0845937964245 -303.5675479616227 -811.3192642509805 -630.0951784448698C-664.5539347055366 -956.6228089281169 -431.07022819910776 -1154.4356225827728 -84.86748179412507 -1245.5619843406862C261.3352646108574 -1336.6883460985996 561.9502711227012 -1279.4592598763265 850.4539184929345 -1067.5017148828576C1138.9575658631684 -855.5441698893887 1146.846843404821 -771.6453667080362 1299.9500255829998 -228.16576837203684C1453.0532077611792 315.3138299639627 1911.768673665361 1080.4824599207268 1585.3491929481902 1541.200357129937 "></path><path d="M1282.643292561159 -216.08553889275186C1432.8021827743733 316.9425287060169 1882.6961974111673 1067.3963773174587 1562.5540144000956 1519.2543149649528C1242.4118313890235 1971.1122526124473 231.17396749175919 2201.994883420599 -254.03918589198395 1952.8325618152198C-739.252339275727 1703.6702402098417 -655.2221470743702 857.2581085609299 -766.4691218418762 323.27517125913187C-877.7160966093822 -210.7077660426662 -931.967584137892 -290.0372842594611 -788.0246647760143 -610.285537233415C-644.0817454141365 -930.5337902073688 -415.08811018667757 -1124.5425112917428 -75.5431089048675 -1213.9164430158503C264.00189237694235 -1303.2903747399575 558.8358410712506 -1247.161847868113 841.7913413766719 -1039.2804095091337C1124.746841682093 -831.3989711501547 1132.484402347945 -749.1136064915206 1282.643292561159 -216.08553889275186C1432.8021827743733 316.9425287060169 1882.6961974111673 1067.3963773174587 1562.5540144000956 1519.2543149649528 "></path><path d="M1265.3364374690054 -204.00543148377938C1412.5510357172543 318.5711053777584 1853.6235990866603 1054.310172643878 1539.7587137816881 1497.3081507296565C1225.8938284767155 1940.3061288154354 234.48415798920178 2166.661649215584 -241.21501199486022 1922.3848633279576C-716.914181978922 1678.1080774403313 -634.5316406050428 848.2922620982617 -743.5973021418134 324.77957846904746C-852.662963678584 -198.73310516016613 -905.850696549672 -276.5071426276122 -764.7301873713604 -590.4760180922727C-623.609678193049 -904.4448935569333 -399.1061142445599 -1094.6495220710256 -66.21885808592265 -1182.271023761327C266.66839807271435 -1269.892525451628 555.7212889494874 -1214.8645579302117 833.1286421900968 -1011.0592262057226C1110.535995430706 -807.2538944812333 1118.121839220756 -726.5819683453174 1265.3364374690054 -204.00543148377938C1412.5510357172543 318.5711053777584 1853.6235990866603 1054.310172643878 1539.7587137816881 1497.3081507296565 "></path><path d="M1248.0297044471645 -191.9253240748069C1392.3000107304483 320.1996820495003 1824.5511228324663 1041.2239679702975 1516.9635352335936 1475.3619864943607C1209.3759476347204 1909.500005018424 237.79447055695664 2131.328415010569 -228.39071602742388 1891.937164840696C-694.5759026118045 1652.5459146708222 -613.8410120654029 839.3264156355935 -720.7253603714381 326.28398567896375C-827.6097086774733 -186.75844427766606 -879.7336868911395 -262.97700099576286 -741.4355878963943 -570.6664989511303C-603.137488901649 -878.3559969064977 -383.12399623212957 -1064.756532850308 -56.8944851966653 -1150.6256045068035C269.3350258387991 -1236.4946761632987 552.6068588980365 -1182.5672679923107 824.4660650738338 -982.8380429023111C1096.3252712496305 -783.1088178123117 1103.7593981638802 -704.0503301991141 1248.0297044471645 -191.9253240748069C1392.3000107304483 320.1996820495003 1824.5511228324663 1041.2239679702975 1516.9635352335936 1475.3619864943607 "></path><path d="M1230.7230019429012 -179.8452166658344C1372.0490162612205 321.8282587212418 1795.4786770958503 1028.1377632967165 1494.1683872030767 1453.415822259064C1192.8580973103035 1878.6938812214116 241.10481364228986 2095.995180805555 -215.56638954240952 1861.4894663534333C-672.2375927271089 1626.9837519013122 -593.1503530081848 830.3605691729249 -697.8533880834846 327.78839288887957C-802.5564231587845 -174.78378339516576 -853.6166467150289 -249.44685936391397 -718.1409579038498 -550.856979809988C-582.6652690926708 -852.2671002560622 -367.14184770212114 -1034.8635436295908 -47.5700817898296 -1118.98018525228C272.00168412246217 -1203.0968268749693 549.492459364164 -1150.2699780544094 815.8035184751488 -954.6168595988999C1082.1145775861337 -758.96374114339 1089.396987624582 -681.5186920529109 1230.7230019429012 -179.8452166658344C1372.0490162612205 321.8282587212418 1795.4786770958503 1028.1377632967165 1494.1683872030767 1453.415822259064 "></path><path d="M1213.416238403482 -167.76510925686193C1351.7979607568363 323.45683539298375 1766.4061703240782 1015.0515586231359 1471.373178137404 1431.4696580237678C1176.3401859507303 1847.8877574244002 244.41509569246682 2060.66194660054 -202.74212409255142 1831.0417678661715C-649.8993438775694 1601.4215891318026 -572.459754986123 821.3947227102567 -674.9814768306874 329.2928000987956C-777.5031986752518 -162.80912251266545 -827.4996675740745 -235.91671773206463 -694.8463889464617 -531.0474606688457C-562.1931103188489 -826.1782036056267 -351.1597602072691 -1004.9705544088733 -38.24573941815015 -1087.3347659977567C274.66828137096877 -1169.6989775866398 546.3779987951352 -1117.9726881165084 807.1409108413079 -926.3956762954886C1067.9038228874806 -734.8186644744685 1075.0345160501283 -658.9870539067077 1213.416238403482 -167.76510925686193C1351.7979607568363 323.45683539298375 1766.4061703240782 1015.0515586231359 1471.373178137404 1431.4696580237678 "></path><path d="M1196.1095358992188 -155.68500184788968C1331.5469662876085 325.08541206472546 1737.3337245874618 1001.9653539495553 1448.5780301068876 1409.5234937884716C1159.8223356263125 1817.0816336273879 247.7254387777998 2025.3287123955247 -189.91779760753695 1800.5940693789084C-627.5610339928738 1575.8594263622927 -551.769095928905 812.4288762475885 -652.1095045427339 330.79720730871145C-752.449913156563 -150.83446163016538 -801.3826273979639 -222.38657610021573 -671.5517589539172 -511.23794152770336C-541.7208905098707 -800.0893069551911 -335.17761167726064 -975.077565188156 -28.92133601131445 -1055.6893467432333C277.33493965463185 -1136.3011282983102 543.2635992612627 -1085.6753981786073 798.4783642426232 -898.1744929920771C1053.6931292239833 -710.673587805547 1060.67210551083 -636.4554157605046 1196.1095358992188 -155.68500184788968C1331.5469662876085 325.08541206472546 1737.3337245874618 1001.9653539495553 1448.5780301068876 1409.5234937884716 "></path><path d="M1178.8027113246435 -143.60489443891697C1311.2958497480681 326.7139887364672 1708.2611567805338 988.8791492759747 1425.7827600060582 1387.5773295531753C1143.304363231583 1786.2755098303764 251.03565979282052 1989.9954781905099 -177.0935931928351 1770.1463708916467C-605.2228461784907 1550.297263592783 -531.0785589419994 803.4630297849199 -629.237654325093 332.3016145186275C-727.3967497081866 -138.85980074766508 -775.2657092921658 -208.8564344683664 -648.2572510316854 -491.428422386561C-521.248792771205 -774.0004103047556 -319.1955852175647 -945.1845759674386 -19.597054674791252 -1024.0439274887099C280.0014758679822 -1102.903279009981 540.1490776570777 -1053.3781082407063 789.8156955736258 -869.9533096886659C1039.4823134901744 -686.5285111366254 1046.3095729012198 -613.9237776143013 1178.8027113246435 -143.60489443891697C1311.2958497480681 326.7139887364672 1708.2611567805338 988.8791492759747 1425.7827600060582 1387.5773295531753 "></path><path d="M1161.495978302803 -131.52478702994472C1291.0448247612621 328.34256540820866 1679.1886805263393 975.7929446023936 1402.9875814579636 1365.631165317879C1126.786482389588 1755.4693860333646 254.34597236057562 1954.6622439854955 -164.26929722539876 1739.698672404384C-582.8845668113732 1524.7351008232731 -510.38793040235953 794.4971833222517 -606.3657125547177 333.8060217285433C-702.3434947070759 -126.885139865165 -749.1486996336332 -195.32629283651727 -624.962651556719 -471.6189032454188C-500.776603479805 -747.9115136543201 -303.2134672051345 -915.2915867467211 -10.272681785533678 -992.3985082341864C282.6681036340667 -1069.5054297216516 537.034647605627 -1021.0808183028051 781.153118457363 -841.7321263852546C1025.271589309099 -662.383434467704 1031.9471318443439 -591.3921394680981 1161.495978302803 -131.52478702994472C1291.0448247612621 328.34256540820866 1679.1886805263393 975.7929446023936 1402.9875814579636 1365.631165317879 "></path><path d="M1144.1892452809616 -119.44467962097224C1270.7937997744557 329.97114207995037 1650.1162042721453 962.706739928813 1380.192402909869 1343.6850010825824C1110.2686015475929 1724.6632622363522 257.6562849283307 1919.3290097804802 -151.44500125796253 1709.2509739171214C-560.5462874442558 1499.1729380537631 -489.69730186271954 785.5313368595835 -583.4937707843424 335.31042893845915C-677.2902397059652 -114.91047898266493 -723.0316899751008 -181.79615120466838 -601.6680520817529 -451.80938410427643C-480.30441418840496 -721.8226170038845 -287.23134919270433 -885.3985975260039 -0.9483088962763304 -960.753088979663C285.33473140015167 -1036.107580433322 533.9202175541764 -988.783528364904 772.4905413411002 -813.5109430818433C1011.060865128024 -638.2383577987824 1017.5846907874675 -568.8605013218948 1144.1892452809616 -119.44467962097224C1270.7937997744557 329.97114207995037 1650.1162042721453 962.706739928813 1380.192402909869 1343.6850010825824 "></path><path d="M1126.8825122591206 -107.36457221199953C1250.5427747876502 331.5997187516923 1621.0437280179513 949.6205352552324 1357.3972243617745 1321.7388368472866C1093.7507207055974 1693.8571384393408 260.96659749608557 1883.9957755754658 -138.6207052905263 1678.8032754298597C-538.2080080771382 1473.6107752842536 -469.00667332307967 776.5654903969148 -560.621829013967 336.8148361483752C-652.2369847048544 -102.93581810016462 -696.9146803165683 -168.26600957281926 -578.3734526067866 -431.9998649631341C-459.83222489700495 -695.7337203534489 -271.2492311802739 -855.5056083052864 8.376063992981244 -929.1076697251394C288.0013591662364 -1002.7097311449926 530.8057875027255 -956.486238427003 763.8279642248372 -785.2897597784319C996.8501409469491 -614.0932811298609 1003.2222497305916 -546.3288631756916 1126.8825122591206 -107.36457221199953C1250.5427747876502 331.5997187516923 1621.0437280179513 949.6205352552324 1357.3972243617745 1321.7388368472866 "></path><path d="M1109.5760233779047 -95.28443428544915C1230.2919939414687 333.2283259410119 1591.9714959043818 936.53436109923 1334.6022899543045 1299.7927031295685C1077.2330840042273 1663.0510451599066 264.27715420446566 1848.6625718880287 -125.79616518246496 1648.3556074601756C-515.8694845693957 1448.0486430323217 -448.3158006428148 767.5996744518243 -537.7496431029667 338.31927387586916C-627.1834855631187 -90.96112670008642 -670.7974265174107 -154.73583742339179 -555.0786089911953 -412.1903153044136C-439.35979146497993 -669.6447931854353 -255.26686902721872 -825.6125885669909 17.700681022863705 -897.4622199530379C290.6682310729461 -969.311851339085 527.6916015918998 -924.1889179715237 755.1656312491994 -757.0685459574424C982.6396609064989 -589.9481739433612 988.8600528143404 -523.7971945119102 1109.5760233779047 -95.28443428544915C1230.2919939414687 333.2283259410119 1591.9714959043818 936.53436109923 1334.6022899543045 1299.7927031295685 "></path><path d="M1092.2692293209075 -83.20432687647644C1210.0409079195065 334.85690261275386 1562.8989586150315 923.4481564256494 1311.8070503710533 1277.8465388942723C1060.7151421270758 1632.2449213628952 267.5874057370643 1813.3293376830143 -112.9719302501851 1617.9079089729134C-493.53126623743447 1422.4864802628122 -427.62523313833105 758.6338279891561 -514.8777623677477 339.8236810857852C-602.1302915971642 -78.98646581758612 -644.6804778940345 -141.2056957915429 -531.7840705513853 -392.38079616327127C-418.88766320873606 -643.5558965349998 -239.28481204994478 -795.7195993462735 27.02499287696503 -865.8168006985145C293.3347978038746 -935.9140020507556 524.5771105052929 -891.8916280336225 746.5029930977803 -728.8473626540311C968.4288756902677 -565.8030972744397 974.497550722308 -501.26555636570697 1092.2692293209075 -83.20432687647644C1210.0409079195065 334.85690261275386 1562.8989586150315 923.4481564256494 1311.8070503710533 1277.8465388942723 "></path><path d="M1074.9624962990663 -71.12424998508232C1189.7898829327005 336.48544876691744 1533.8264823608374 910.3619212344902 1289.0118718229587 1255.900344141398C1044.1972612850805 1601.4387670483052 270.8977183048196 1777.9960729604213 -100.14763428274887 1587.4601799680727C-471.19298687031693 1396.924286975724 -406.9346045986912 749.6679510089098 -492.0058205973723 341.3280577781227C-577.0770365960534 -67.01183545266395 -618.563468235502 -127.67558467727167 -508.489471076419 -372.57130753970705C-398.41547391733604 -617.4670304021423 -223.30269403751436 -765.8266406431343 36.34936576622249 -834.1714119615692C296.00142556995934 -902.5161832800043 521.4626804538423 -859.5943686132996 737.8404159815175 -700.626209868198C954.2181515091927 -541.6580511230964 960.1351096654319 -478.73394873708196 1074.9624962990663 -71.12424998508232C1189.7898829327005 336.48544876691744 1533.8264823608374 910.3619212344902 1289.0118718229587 1255.900344141398 "></path><path d="M1057.6557937948035 -59.04411205853148C1169.5388884634726 338.1140559562373 1504.7540366242215 897.2757470784882 1266.2167237924423 1233.9542104236798C1027.6794109606633 1570.6326737688719 274.2080613901526 1742.6628692729846 -87.32330779773429 1557.012511998389C-448.8546769856213 1371.3621547237926 -386.24394554147307 740.7021350638197 -469.1338483094188 342.8324955056171C-552.0237510773645 -55.03714405258552 -592.4464280593913 -114.14541252784443 -485.1948410838746 -352.7617578809866C-377.9432541083579 -591.3781032341287 -207.32054550750604 -735.9336209048388 45.67376917305819 -802.5259621894677C298.6680838536224 -869.1183034740967 518.3482809199697 -827.2970481578203 729.1778693828328 -672.4049960472084C940.0074578456956 -517.5129439365966 945.7726991261341 -456.20228007330047 1057.6557937948035 -59.04411205853148C1169.5388884634726 338.1140559562373 1504.7540366242215 897.2757470784882 1266.2167237924423 1233.9542104236798 "></path><path d="M1040.3490607729623 -46.96400464955923C1149.2878634766666 339.74263262797876 1475.681560370027 884.1895424049071 1243.4215452443477 1212.0080461883836C1011.161530118668 1539.82654997186 277.51837395790767 1707.3296350679698 -74.49901183029806 1526.5648135111264C-426.51639761850385 1345.799991954283 -365.5533170018332 731.736288601151 -446.2619065390435 344.3369027155327C-526.9704960762538 -43.06248317008544 -566.3294184008589 -100.61527089599531 -461.90024160890835 -332.95223873984423C-357.4710648169578 -565.2892065836932 -191.33842749507585 -706.0406316841213 54.99814206231565 -770.8805429349443C301.33471161970715 -835.7204541857673 515.2338508685191 -794.9997582199192 720.51529226657 -644.1838127437971C925.7967336646207 -493.36786726767514 931.4102580692579 -433.67064192709745 1040.3490607729623 -46.96400464955923C1149.2878634766666 339.74263262797876 1475.681560370027 884.1895424049071 1243.4215452443477 1212.0080461883836 "></path><path d="M1023.0423277511213 -34.883897240586975C1129.0368384898607 341.3712092997205 1446.609084115833 871.1033377313263 1220.6263666962532 1190.0618819530869C994.6436492766727 1509.0204261748477 280.82868652566276 1671.9964008629545 -61.67471586286183 1496.1171150238638C-404.1781182513863 1320.237829184773 -344.8626884621933 722.7704421384826 -423.38996476866816 345.84130992544874C-501.917241075143 -31.087822287585368 -540.2124087423263 -87.08512926414642 -438.60564213394207 -313.142719598702C-336.99887552555776 -539.2003099332576 -175.35630948264554 -676.147642463404 64.32251495157323 -739.2351236804209C304.0013393857919 -802.3226048974378 512.1194208170682 -762.7024682820181 711.8527151503072 -615.9626294403859C911.5860094835457 -469.2227905987536 917.047817012382 -411.1390037808942 1023.0423277511213 -34.883897240586975C1129.0368384898607 341.3712092997205 1446.609084115833 871.1033377313263 1220.6263666962532 1190.0618819530869 "></path><path d="M1005.7354726589679 -22.803820349192392C1108.7856914327422 342.99975545388406 1417.5364857913264 858.0171025401678 1197.8310660778457 1168.115687200213C978.1256463643651 1478.2142718602581 284.1388770231051 1636.663136140362 -48.8505419657381 1465.6693860190235C-381.83996095458133 1294.6756358976854 -324.17218199286583 713.8045651582365 -400.51814506860535 347.34568661778644C-476.8641081443448 -19.11319192266319 -514.0955211541063 -73.5550181498752 -415.3111647292883 -293.33323097513767C-316.52680830447025 -513.1114438004001 -159.37431354052774 -646.2546837602647 73.64676577051819 -707.5897349434756C306.66784508156434 -768.9247861266865 509.00486869530505 -730.4052088616952 703.1900159637316 -587.7414766545526C897.3751632321582 -445.07774444741017 902.6852538851933 -388.6073961522691 1005.7354726589679 -22.803820349192392C1108.7856914327422 342.99975545388406 1417.5364857913264 858.0171025401678 1197.8310660778457 1168.115687200213 "></path><path d="M988.4288311898611 -10.723682422642014C1088.5347579986703 344.6283626432039 1388.4641010898667 844.9309283841651 1175.0359790824855 1146.1695534824944C961.607857075104 1447.408178580824 287.4492811435948 1601.3299324529248 -36.0261544455675 1435.2217180493394C-359.5015900347295 1269.1135036457536 -303.4814619004916 704.838749213146 -377.64611174549566 348.8501243452806C-451.8107615904997 -7.1385005225847635 -487.9784199428395 -60.024846000448065 -392.01647370158764 -273.5236813164173C-296.05452746033586 -487.02251663238656 -143.39210397536317 -616.3616640219692 82.97123021251014 -675.9442851713741C309.33456440038344 -735.526906320779 505.89053019658877 -698.1078884062158 694.5275304002032 -559.5202628335632C883.1645306038174 -420.9326372609105 888.3229043810518 -366.0757274884877 988.4288311898611 -10.723682422642014C1088.5347579986703 344.6283626432039 1388.4641010898667 844.9309283841651 1175.0359790824855 1146.1695534824944 "></path><path d="M971.1220981680199 1.356424986330694C1068.2837330118643 346.2569393149456 1359.3916248356727 831.8447237105845 1152.2408005343907 1124.2233892471986C945.0899762331089 1416.6020547838125 290.7595937113497 1565.996698247911 -23.201858478131157 1404.7740195620777C-337.16331066761194 1243.551340876244 -282.7908333608517 695.8729027504778 -354.7741699751203 350.35453155519644C-426.7575065893889 4.836160359915311 -461.86141028430694 -46.494704368598946 -368.72187422662137 -253.71416217527496C-275.58233816893585 -460.933619981951 -127.40998596293286 -586.4686748012518 92.2956031017676 -644.2988659168507C312.0011921664682 -702.1290570324495 502.77610014513834 -665.8105984683148 685.8649532839404 -531.2990795301519C868.9538064227422 -396.78756059198895 873.9604633241756 -343.54408934228445 971.1220981680199 1.356424986330694C1068.2837330118643 346.2569393149456 1359.3916248356727 831.8447237105845 1152.2408005343907 1124.2233892471986 "></path><path d="M953.8153651461791 13.436532395303061C1048.0327080250584 347.8855159866873 1330.3191485814787 818.7585190370037 1129.445621986296 1102.2772250119024C928.5720953911136 1385.7959309868006 294.06990627910454 1530.6634640428956 -10.377562510694816 1374.3263210748146C-314.82503130049446 1217.989178106734 -262.1002048212117 686.9070562878094 -331.902228204745 351.85893876511227C-401.70425158827817 16.810821242415386 -435.74440062577446 -32.96456273674994 -345.4272747516551 -233.90464303413262C-255.11014887753572 -434.8447233315154 -111.42786795050267 -556.5756855805345 101.61997599102506 -612.6534466623273C314.6678199325529 -668.7312077441201 499.66167009368746 -633.5133085304137 677.2023761676776 -503.07789622674056C854.7430822416673 -372.6424839230674 859.5980222672997 -321.0124511960812 953.8153651461791 13.436532395303061C1048.0327080250584 347.8855159866873 1330.3191485814787 818.7585190370037 1129.445621986296 1102.2772250119024 "></path><path d="M936.508632124338 25.516609286697417C1027.7816830382524 349.5140621408509 1301.2466723272842 805.6722838458447 1106.6504434382014 1080.3310302590276C912.0542145491183 1354.9897766722106 297.38021884685986 1495.3301993203027 2.4467334567414127 1343.8785920699747C-292.4867519333769 1192.4269848196463 -241.40957628157184 677.9411793075628 -309.0302864343696 353.3633154574502C-376.6509965871674 28.785451607337563 -409.6273909672419 -19.434451622478832 -322.1326752766888 -214.0951544105684C-234.6379595861357 -408.7558571986581 -95.44574993807237 -526.6827268773952 110.94434888028263 -581.008057925382C317.33444769863763 -635.3333889733688 496.5472400422368 -601.2160491100907 668.5397990514145 -474.8567434409073C840.5323580605923 -348.497437771724 845.2355812104236 -298.4808435674562 936.508632124338 25.516609286697417C1027.7816830382524 349.5140621408509 1301.2466723272842 805.6722838458447 1106.6504434382014 1080.3310302590276 "></path><path d="M919.2018991024968 37.59674721324802C1007.5306580514464 351.14266933017075 1272.1741960730901 792.5861096898423 1083.8552648901066 1058.3848965413097C895.5363337071233 1324.1836833927769 300.6905314146147 1459.996995632866 15.271029424177641 1313.4309241002902C-270.14847256625944 1166.8648525677145 -220.71894774193186 668.9753633624725 -286.1583446639943 354.8677531849444C-351.5977415860567 40.76014300741588 -383.51038130870944 -5.904279473051588 -298.83807580172254 -194.28560475184804C-214.16577029473564 -382.6669300306444 -79.46363192564218 -496.7897071390997 120.2687217695402 -549.3626081532805C320.00107546472236 -601.9355091674613 493.43280999078615 -568.9187286546114 659.8772219351517 -446.63552961991786C826.3216338795173 -324.3523305852243 830.8731401535476 -275.9491749036748 919.2018991024968 37.59674721324802C1007.5306580514464 351.14266933017075 1272.1741960730901 792.5861096898423 1083.8552648901066 1058.3848965413097 "></path><path d="M901.8951355630779 49.67685462222039C987.2796025470623 352.77124600191246 1243.1016893013177 779.4999050162617 1061.0600558244337 1036.4387323060134C879.0184223475499 1293.377559595765 304.0008134647916 1424.6637614278516 28.095294874035744 1282.983225613028C-247.8102237167201 1141.302689798205 -200.0283497198701 660.0095168998043 -263.2864334111971 356.3721603948602C-326.5445171025241 52.73480388991618 -357.3934021677551 7.625862158797531 -275.5435068443344 -174.4760856107057C-193.69361152091375 -356.5780333802088 -63.481544430789995 -466.8967179183823 129.59306414121954 -517.7171888987571C322.6676727132291 -568.5376598791318 490.3183494217574 -536.6214387167104 651.2146143013108 -418.41434631650657C812.110879180864 -300.20725391630276 816.5106685790931 -253.41753675747168 901.8951355630779 49.67685462222039C987.2796025470623 352.77124600191246 1243.1016893013177 779.4999050162617 1061.0600558244337 1036.4387323060134 "></path><path d="M884.5884025412367 61.75696203119287C967.028577560256 354.3998226736544 1214.0292130471237 766.4137003426811 1038.264877276339 1014.492568070717C862.5005415055546 1262.5714357987536 307.31112603254667 1389.3305272228367 40.919590841472086 1252.5355271257658C-225.47194434960255 1115.740527028695 -179.33772118023023 651.0436704371359 -240.41449164082178 357.876567604776C-301.4912621014133 64.70946477241637 -331.27639250922255 21.15600379064665 -252.2489073693681 -154.66656646956335C-173.22142222951368 -330.48913672977324 -47.4994264183598 -437.0037286976649 138.917437030477 -486.07176964423365C325.3343004793139 -535.1398105908024 487.2039193703067 -504.3241487788092 642.5520371850478 -390.1931630130952C797.9001549997888 -276.0621772473812 802.1482275222172 -230.88589861126843 884.5884025412367 61.75696203119287C967.028577560256 354.3998226736544 1214.0292130471237 766.4137003426811 1038.264877276339 1014.492568070717 "></path><path d="M867.2816695193956 73.83706944016535C946.7775525734501 356.0283993453959 1184.9567367929296 753.3274956691005 1015.4696987282443 992.546403835421C845.9826606635593 1231.7653120017412 310.62143860030164 1353.997293017822 53.743886808908314 1222.0878286385037C-203.13366498248502 1090.1783642591854 -158.64709264059024 642.0778239744675 -217.54254987044646 359.3809748146921C-276.43800710030257 76.68412565491656 -305.15938285069006 34.68614542249577 -228.95430789440184 -134.857047328421C-152.74923293811366 -304.40024007933766 -31.517308405929498 -407.1107394769475 148.24180991973458 -454.4263503897102C328.00092824539854 -501.74196130247293 484.08948931885607 -472.0268588409081 633.889460068785 -361.97197970968386C783.6894308187138 -251.91710057845967 787.7857864653411 -208.35426046506518 867.2816695193956 73.83706944016535C946.7775525734501 356.0283993453959 1184.9567367929296 753.3274956691005 1015.4696987282443 992.546403835421 "></path><path d="M849.9749364975546 85.91717684913783C926.5265275866443 357.6569760171376 1155.8842605387351 740.2412909955196 992.6745201801498 970.6002396001247C829.464779821564 1200.9591882047296 313.93175116805673 1318.664058812807 66.56818277634466 1191.6401301512415C-180.79538561536754 1064.6162014896759 -137.95646410095037 633.1119775117993 -194.6706081000711 360.88538202460813C-251.38475209919181 88.65878653741674 -279.0423731921576 48.21628705434489 -205.65970841943556 -115.04752818727866C-132.2770436467136 -278.3113434289022 -15.535190393499192 -377.21775025623015 157.56618280899215 -422.7809311351868C330.6675560114834 -468.3441120141435 480.9750592674054 -439.729568903007 625.2268829525219 -333.75079640627257C769.4787066376389 -227.77202390953812 773.4233454084651 -185.82262231886193 849.9749364975546 85.91717684913783C926.5265275866443 357.6569760171376 1155.8842605387351 740.2412909955196 992.6745201801498 970.6002396001247 "></path><path d="M832.6682034757137 97.99728425811031C906.2755025998381 359.2855526888793 1126.811784284541 727.155086321939 969.879341632055 948.6540753648283C812.9468989795687 1170.1530644077177 317.2420637358118 1283.3308246077922 79.39247874378088 1161.1924316639788C-158.45710624825006 1039.0540387201656 -117.26583556131044 624.1461310491309 -171.79866632969578 362.38978923452373C-226.33149709808112 100.63344741991693 -252.92536353362505 61.746428686193894 -182.36510894446928 -95.23800904613631C-111.80485435531358 -252.22244677846663 0.4469276189309994 -347.3247610355128 166.8905556982496 -391.1355118806634C333.3341837775681 -434.94626272581405 477.86062921595476 -407.43227896510587 616.5643058362593 -305.5296131028613C755.2679824565639 -203.62694724061657 759.060904351589 -163.29098417265868 832.6682034757137 97.99728425811031C906.2755025998381 359.2855526888793 1126.811784284541 727.155086321939 969.879341632055 948.6540753648283 "></path><path d="M815.3615009714506 110.0773916670828C886.0245081306102 360.9141293606208 1097.7393385479252 714.0688816483582 947.0841936015383 926.707911129532C796.4290486551517 1139.3469406107058 320.5524068211449 1247.9975904027774 92.21680522879524 1130.7447331767166C-136.11879636355445 1013.4918759506561 -96.57517650409238 615.1802845864624 -148.92669404174234 363.8941964444398C-201.27821157939223 112.60810830241712 -226.80832335751444 75.27657031804301 -159.07047895192494 -75.42848990499397C-91.33263454633538 -226.13355012803117 16.42907614893943 -317.43177181479535 176.2149591050852 -359.49009262614C336.0008420612311 -401.5484134374846 474.746229682082 -375.13498902720477 607.9017592375744 -277.3084297994499C741.0572887930668 -179.48187057169503 744.698493812291 -140.75934602645543 815.3615009714506 110.0773916670828C886.0245081306102 360.9141293606208 1097.7393385479252 714.0688816483582 947.0841936015383 926.707911129532 "></path><path d="M798.0547679496094 122.15749907605516C865.7734831438042 362.54270603236273 1068.666862293731 700.9826769747776 924.2890150534438 904.7617468942358C779.9111678131562 1108.540816813694 323.8627193888999 1212.6643561977623 105.04110119623147 1100.2970346894542C-113.78051699643692 987.9297131811463 -75.88454796445251 606.2144381237943 -126.05475227136697 365.3986036543556C-176.22495657828148 124.58276918491731 -200.69131369898196 88.80671194989213 -135.77587947695866 -55.61897076385162C-70.86044525493537 -200.0446534775956 32.41119416136962 -287.538782594078 185.53933199434277 -327.8446733716166C338.6674698273159 -368.1505641491552 471.63179963063135 -342.83769908930367 599.2391821213116 -249.08724649603857C726.8465646119917 -155.33679390277348 730.336052755415 -118.2277078802523 798.0547679496094 122.15749907605516C865.7734831438042 362.54270603236273 1068.666862293731 700.9826769747776 924.2890150534438 904.7617468942358 "></path><path d="M780.7480349277687 134.23760648502764C845.5224581569983 364.1712827041042 1039.5943860395369 687.8964723011968 901.493836505349 882.8155826589395C763.3932869711612 1077.7346930166823 327.173031956655 1177.3311219927477 117.86539716366781 1069.849336202192C-91.44223762931944 962.3675504116366 -55.19391942481258 597.2485916611258 -103.18281050099165 366.90301086427166C-151.17170157717072 136.5574300674175 -174.57430404044942 102.33685358174137 -112.48128000199239 -35.80945162270939C-50.3882559635353 -173.95575682716003 48.39331217379993 -257.64579337336056 194.86370488360035 -296.1992541170932C341.33409759340054 -334.75271486082573 468.5173695791807 -310.54040915140257 590.5766050050488 -220.86606319262728C712.6358404309167 -131.19171723385193 715.9736116985391 -95.69606973404905 780.7480349277687 134.23760648502764C845.5224581569983 364.1712827041042 1039.5943860395369 687.8964723011968 901.493836505349 882.8155826589395 "></path><path d="M763.4413019059275 146.31771389400024C825.2714331701923 365.79985937584615 1010.5219097853428 674.8102676276162 878.6986579572545 860.8694184236433C746.8754061291659 1046.9285692196704 330.48334452441 1141.997887787733 130.68969313110404 1039.4016377149298C-69.1039582622019 936.8053876421268 -34.503290885172646 588.2827451984574 -80.31086873061633 368.4074180741876C-126.11844657606002 148.5320909499177 -148.45729438191694 115.86699521359037 -89.18668052702611 -15.999932481567043C-29.916066672135287 -147.86686017672446 64.37543018623023 -227.7528041526432 204.1880777728578 -264.5538348625698C344.0007253594854 -301.3548655724963 465.4029395277299 -278.2431192135015 581.9140278887858 -192.64487988921593C698.4251162498417 -107.04664056493039 701.611170641663 -73.1644315878458 763.4413019059275 146.31771389400024C825.2714331701923 365.79985937584615 1010.5219097853428 674.8102676276162 878.6986579572545 860.8694184236433 "></path><path d="M746.1345688840865 158.39782130297272C805.020408183386 367.42843604758787 981.4494335311485 661.7240629540356 855.9034794091594 838.9232541883471C730.3575252871706 1016.1224454226585 333.79365709216495 1106.664653582718 143.51398909854026 1008.9539392276677C-46.76567889508442 911.243224872617 -13.812662345532715 579.316898735789 -57.43892696024102 369.91182528410354C-101.06519157494927 160.50675183241788 -122.3402847233844 129.3971368454395 -65.89208105205984 3.8095866595753023C-9.443877380735216 -121.77796352628894 80.35754819866042 -197.85981493192583 213.51245066211527 -232.90841560804637C346.6673531255701 -267.95701628416685 462.2885094762793 -245.94582927560032 573.251450772523 -164.42369658580463C684.2143920687668 -82.90156389600884 687.2487295847868 -50.63279344164255 746.1345688840865 158.39782130297272C805.020408183386 367.42843604758787 981.4494335311485 661.7240629540356 855.9034794091594 838.9232541883471 "></path><path d="M728.8278663798237 170.4779287119452C784.7694137141582 369.0570127193296 952.3769877945326 648.637858280455 833.108331378643 816.9770899530508C713.8396749627536 985.3163216256469 337.10400017749816 1071.3314193777032 156.33831558355473 978.5062407404055C-24.427369010388816 885.6810621031073 6.877996711685341 570.3510522731208 -34.56695467228752 371.4162324940195C-76.01190605626039 172.48141271491818 -96.2232445472738 142.92727847728872 -42.597451059515436 23.619105800717648C11.028342428242922 -95.68906687585343 96.33969672866886 -167.96682571120846 222.83685406895097 -201.2629963535229C349.3340114092331 -234.55916699583742 459.17410994240674 -213.64853933769922 564.5889041738383 -136.20251328239328C670.0036984052697 -58.75648722708729 672.886319045489 -28.1011552954393 728.8278663798237 170.4779287119452C784.7694137141582 369.0570127193296 952.3769877945326 648.637858280455 833.108331378643 816.9770899530508 "></path><path d="M711.5211333579825 182.55803612091745C764.5183887273522 370.6855893910712 923.3045115403384 635.551653606874 810.3131528305485 795.0309257177544C697.3217941207581 954.5101978286348 340.41431274525326 1035.9981851726882 169.16261155099096 948.0585422531428C-2.0890896432712793 860.1188993335975 27.568625251325216 561.3852058104521 -11.695012901912207 372.9206397039353C-50.95865105514963 184.45607359741825 -70.10623488874131 156.45742010913773 -19.30285158454916 43.42862494185988C31.500531719642993 -69.60017022541786 112.32181474109916 -138.0738364904911 232.16122695820854 -169.6175770989995C352.0006391753178 -201.16131770750798 456.059679890956 -181.35124939979812 555.9263270575755 -107.98132997898199C655.7929742241947 -34.61141055816586 658.5238779886129 -5.569517149236162 711.5211333579825 182.55803612091745C764.5183887273522 370.6855893910712 923.3045115403384 635.551653606874 810.3131528305485 795.0309257177544 "></path><path d="M694.2144613712976 194.63814352988993C744.2674247757022 372.3141660628129 894.2320963213006 622.4654489332934 787.5180353176099 773.0847614824581C680.8039743139193 923.7040740316229 343.7246863481646 1000.6649509676733 181.98696855358344 917.6108437658806C20.24925075900245 834.5567365640877 48.2593148261214 552.4193593477839 11.176989903619358 374.42504691385125C-25.905335018882624 196.43073447991856 -43.989164195052524 169.98756174098685 3.991808925573366 63.238144083002226C51.97278204619926 -43.51127357498234 128.3039937886856 -108.18084726977366 241.48566088262226 -137.9721578444761C354.6673279765589 -167.76346841917854 452.9453108746616 -149.05395946189702 547.2638109764688 -79.76014667557064C641.5823110782758 -10.46633388924431 644.161497966893 16.962120996967087 694.2144613712976 194.63814352988993C744.2674247757022 372.3141660628129 894.2320963213006 622.4654489332934 787.5180353176099 773.0847614824581 "></path><path d="M676.9077283494566 206.7182204212843C724.0163997888963 373.9427122169765 865.1596200671065 609.3792137421347 764.7228567695151 751.138566729584C664.286093471924 892.8979197170331 347.03499891591946 965.3316862450806 194.81126452101978 887.1631147610401C42.58753012611999 808.9945432769998 68.94994336576133 543.4534823675376 34.04893167399473 375.92942360618895C-0.8520800177719252 208.4053648448405 -17.872154536520043 183.51767285525784 27.286408400539642 83.04763270656645C72.44497133759933 -17.422407442124893 144.2861118011158 -78.28788856663442 250.81003377187972 -106.32676910753082C357.33395574264364 -134.36564964842722 449.8308808232109 -116.75670004157405 538.601233860206 -51.53899388973747C627.3715868972008 13.678712262099111 629.799056910017 39.49372862559221 676.9077283494566 206.7182204212843C724.0163997888963 373.9427122169765 865.1596200671065 609.3792137421347 764.7228567695151 751.138566729584 "></path><path d="M659.6009342924593 218.79838886541302C703.765313766934 375.57134992387444 836.087082777756 596.2930701037103 741.9276171862643 729.192463529444C647.7681515947726 862.0918569551775 350.3452504485183 929.998513075222 207.63549945329976 856.7154773089342C64.92574845808122 783.4324415426463 89.64051087024501 534.4876969400253 56.920812409213795 377.43389185126125C24.20111394818258 220.38008676249706 8.244794086856189 197.0478755222632 50.58094684034967 102.85721288286504C92.91709959384309 8.666550243466872 160.26816877838985 -48.39483831076075 260.13434562598104 -74.68128881785117C360.0005224735721 -100.96773932494153 446.716389736604 -84.45934906851664 529.9385957087868 -23.317749551169868C613.1608016809696 37.82384996617691 615.4365548179848 62.02542780695171 659.6009342924593 218.79838886541302C703.765313766934 375.57134992387444 836.087082777756 596.2930701037103 741.9276171862643 729.192463529444 "></path><path d="M642.2942012706184 230.87843523922925C683.514288780128 377.19986556046 807.0146065235617 583.2068043949733 719.1324386381693 707.2462382589913C631.2502707527773 831.2856721230096 353.6555630162734 894.6652178350512 220.4597954207361 826.2677177865157C87.2640278251987 757.8702177379803 110.33113940988488 525.5217894422008 79.79275417958911 378.9382380260208C49.25436894929334 232.354686609841 34.36180374538873 210.57795611895608 73.87554631531594 122.66667098885114C113.38928888524316 34.755385858746195 176.2502867908201 -18.50191012519963 269.4587185152385 -43.035930598484015C362.66715023965696 -67.56995107176834 443.60195968515336 -52.162120165771796 521.2760185925239 4.903372717085176C598.9500774998944 61.968865599942205 601.0741137611086 84.5570049179986 642.2942012706184 230.87843523922925C683.514288780128 377.19986556046 807.0146065235617 583.2068043949733 719.1324386381693 707.2462382589913 "></path><path d="M624.9874987663554 242.95860368335798C663.2632943109003 378.82850326735786 777.9421607869458 570.1206607565489 696.337290607653 685.3001350588515C614.7324204283601 800.479609361154 356.9659061016065 859.3320446651926 233.28412190575045 795.8200803344098C109.60233770989436 732.308116003627 131.02179846710294 516.5560040146887 102.66472646754255 380.44270627109313C74.30765446798222 244.32940852749743 60.47884392149933 224.10815878596145 97.17017630786034 142.47625116514973C133.8615086942213 60.84434354433796 192.23243532082853 11.391140130673989 278.7831219220742 -11.390450308804361C365.3338085233198 -34.172040748282654 440.48756015128083 -19.864769192714448 512.6134719938391 33.12461705565278C584.7393838363976 86.11400330402 586.7117032218107 107.0887040993581 624.9874987663554 242.95860368335798C663.2632943109003 378.82850326735786 777.9421607869458 570.1206607565489 696.337290607653 685.3001350588515 "></path><path d="M607.6807352269362 255.0386500571742C643.012238806516 380.4570189039432 748.8696540151735 557.0343950478119 673.5420815419801 663.3539097883988C598.2145090687868 769.6734245289858 360.27618815178334 823.9987494250215 246.10838735560856 765.3723208119911C131.9405865594337 706.745892198961 151.71239648916475 507.59009651686404 125.5366377203398 381.9470524458527C99.36087895151485 256.3040083748414 86.59582306245375 237.63823938265432 120.4647452652485 162.28570927113583C154.33366746804325 86.93317915961723 208.21452281568065 41.28406831623511 288.10746429375354 20.254907910562792C368.00040577182654 -0.7742524951094651 437.37309958225194 12.4324597100304 503.95086435999815 61.34573932390788C570.5286291377444 110.2590189377853 572.3492316473564 129.6202812104051 607.6807352269362 255.0386500571742C643.012238806516 380.4570189039432 748.8696540151735 557.0343950478119 673.5420815419801 663.3539097883988 "></path><path d="M590.3740022050953 267.1187574661467C622.7612138197101 382.0855955756849 719.7971777609794 543.9481903742312 650.7469029938854 641.4077455531026C581.6966282267915 738.867300731974 363.58650071953844 788.6655152200067 258.93268332304484 734.9246223247287C154.27886592655125 681.1837294294511 172.40302502880468 498.6242500541957 148.4085794907151 383.45145965576864C124.41413395262555 268.27866925734156 112.71283272098623 251.16838101450344 143.75934474021477 182.09522841227812C174.80585675944326 113.0220758100528 224.1966408281109 71.17705753695253 297.4318371830111 51.90032716508625C370.66703353791127 32.62359679321992 434.2586695308013 44.729749647931556 495.28828724373534 89.56692262731917C556.3179049566693 134.40409560670685 557.9867905904805 152.1519193566083 590.3740022050953 267.1187574661467C622.7612138197101 382.0855955756849 719.7971777609794 543.9481903742312 650.7469029938854 641.4077455531026 "></path><path d="M573.0672844420433 279.1988953926973C602.510204091693 383.71420276500487 690.7247167655743 530.8620162182287 627.9517397045797 619.4616118353845C565.1787626435853 708.0612074525402 366.8968285460825 753.33231153257 271.75699454927013 704.4769543550448C176.6171605524578 655.6215971775194 193.0936688272336 489.65843410910543 171.2805365198795 384.9558973832627C149.46740421252537 280.2533606574199 138.82985763830777 264.6985531639307 167.0539594739701 201.9047780709986C195.2780613096324 139.1110029780665 240.1787740993302 101.07007727524802 306.75622533105764 83.54577693718778C373.33367656278506 66.02147659912748 431.1442547381396 77.02707010341078 486.6257253862615 117.78813644830865C542.1071960343834 158.54920279320652 543.6243647923934 174.68358802038966 573.0672844420433 279.1988953926973C602.510204091693 383.71420276500487 690.7247167655743 530.8620162182287 627.9517397045797 619.4616118353845 "></path><path d="M555.7605514202022 291.2790333192478C582.259179104887 385.3428099543246 661.6522405113801 517.775842062226 605.1565611564852 597.5154781176662C548.66088180159 677.2551141731064 370.20714111383757 717.9991078451332 284.5812905167064 674.0292863853605C198.95543991957527 630.0594649255878 213.78429736687355 480.69261816401513 194.15247829025486 386.46033511075666C174.52065921363612 292.2280520574982 164.9468672968403 278.2287253133579 190.34855894893633 221.714327729719C215.7502506010324 165.19993014608013 256.1608921117605 130.96309701354352 316.0805982203152 115.19122670928931C376.0003043288698 99.41935640503505 428.0298246866889 109.32439055889 477.96314826999867 146.00935026929807C527.8964718533083 182.69430997970613 529.2619237355174 197.21525668417098 555.7605514202022 291.2790333192478C582.259179104887 385.3428099543246 661.6522405113801 517.775842062226 605.1565611564852 597.5154781176662 "></path><path d="M538.4538489159393 303.35914072822027C562.0081846356591 386.9713866260663 632.5797947747642 504.68963738864545 582.3614131259685 575.5693138823701C532.1430314771729 646.4489903760947 373.51748419917067 682.6658736401184 297.4056170017208 643.5815878980982C221.29374980427093 604.497302156078 234.4749564240916 471.72677170134693 217.0244505782083 387.9647423206726C199.573944732325 304.2027129399984 191.06390747295092 291.75886694520705 213.64318894148073 241.52384687086135C236.2224704100106 191.28882679651565 272.14304064176883 160.85608623426094 325.4050016271508 146.8366459638127C378.66696261253276 132.81720569336449 424.9154251528164 141.6216804967911 469.30060167131387 174.23053357270942C513.6857781898113 206.83938664862768 514.8995131962195 219.74689483037423 538.4538489159393 303.35914072822027C562.0081846356591 386.9713866260663 632.5797947747642 504.68963738864545 582.3614131259685 575.5693138823701 "></path><path d="M521.1470853765202 315.4392633959818C541.757129131275 388.5999785565972 603.5072880029918 491.6034479738539 559.5662040602956 553.6231649058628C515.6251201175996 615.642881837872 376.82776624934763 647.3326546938928 310.229882451579 613.133904669625C243.63199865381029 578.9351546453573 255.1655544461534 462.7609404974676 239.8963618310055 389.4691647893776C224.62716921585758 316.17738908128763 217.18088661390527 305.2890238358452 236.93775789886888 261.33338127079276C256.6946291838325 217.37773870574028 288.125128136621 190.74909071376737 334.7293439988302 178.48208047712518C381.3335598610395 166.215070240483 421.8009645837876 173.91898569348126 460.63799403747294 202.45173213490978C499.47502349115814 230.9844785763383 500.5370416217652 242.2785482353665 521.1470853765202 315.4392633959818C541.757129131275 388.5999785565972 603.5072880029918 491.6034479738539 559.5662040602956 553.6231649058628 "></path><path d="M503.84036761346806 327.51934028737617C521.506119403258 390.22852471076067 574.4348270075868 478.51721278269497 536.7710407709901 531.6769701529885C499.1072545343934 584.836727523282 380.1380940758917 611.9993899712998 323.0541936778043 582.6861756647846C265.9702932797169 553.3729613582695 275.85619824458234 453.795063517221 262.76831886016987 390.9735414817154C249.6804394757574 328.15201944620975 243.29791153122687 318.8191349501162 260.2323726326242 281.142869894357C277.1668337340216 243.46660483859768 304.1072614078403 220.64204941690662 344.05373214687677 210.12746921407046C384.00020288591327 199.6128890112343 418.686549791126 206.2162451138043 451.9754321799991 230.672884920743C485.2643145688721 255.1295247276817 486.1746158236782 264.8101558639916 503.84036761346806 327.51934028737617C521.506119403258 390.22852471076067 574.4348270075868 478.51721278269497 536.7710407709901 531.6769701529885 "></path><path d="M486.5336345916271 339.59944769634865C501.25509441645204 391.8571013825024 545.3623507533925 465.4310081091144 513.9758622228953 509.73080591769224C482.5893736923981 554.0306037262701 383.4484066436467 576.666155766285 335.87848964524056 552.2384771775223C288.30857264683436 527.8107985887598 296.5468267842223 444.8292170545527 285.64026063054524 392.47794869163135C274.73369447686815 340.12668032870994 269.41492118975935 332.34927658196534 283.5269721075905 300.9523890354993C297.6390230254217 269.55550148903325 320.0893794202706 250.53503863762398 353.3781050361343 241.77288846859386C386.666830651998 233.01073829956374 415.57211973967526 238.5135350517054 443.31285506373615 258.8940682241543C471.05359038779716 279.27460139660326 471.8121747668022 287.3417940101948 486.5336345916271 339.59944769634865C501.25509441645204 391.8571013825024 545.3623507533925 465.4310081091144 513.9758622228953 509.73080591769224 "></path><path d="M469.22693208736416 351.67955510532107C481.00409994722406 393.4856780542441 516.2899050167766 452.34480343553366 491.1807141923788 487.784641682396C466.07152336798094 523.2244799292582 386.75874972897986 541.3329215612702 348.7028161302549 521.79077869026C310.64688253152997 502.24863581925 317.23748584144033 435.8633705918844 308.5122329184987 393.98235590154724C299.78697999555703 352.1013412112101 295.53196136587 345.87941821381446 306.8216021001349 320.7619081766416C318.11124283439983 295.64439813946876 336.07152795027895 280.4280278583414 362.70250844296993 273.41830772311727C389.3334889356609 266.4085875878932 412.45772020580273 270.8108249896065 434.65030846505147 287.11525152756565C456.8428967243002 303.41967806552475 457.44976422750426 309.87343215639805 469.22693208736416 351.67955510532107C481.00409994722406 393.4856780542441 516.2899050167766 452.34480343553366 491.1807141923788 487.784641682396 "></path><path d="M451.92016854794497 363.75966251429355C460.75304444283995 395.1142547259858 487.21739824500435 439.25859876195295 468.385505126706 465.83847744709965C449.55361200840764 492.41835613224646 390.0690317791568 505.99968735625544 361.5270815801131 491.3430802029977C332.9851313810694 476.68647304974024 337.92808386350214 426.897524129216 331.3841441712959 395.4867631114632C324.84020447908966 364.0760020937104 321.6489405068244 359.4095598456636 330.11617105752305 340.57142731778396C338.5834016082217 321.73329478990433 352.0536154451311 310.3210170790588 372.0268508146493 305.0637269776407C392.00008618416757 299.8064368762226 409.34325963677395 303.1081149275076 425.9877008312105 315.33643483097694C442.632142025647 327.5647547344463 443.08729265305004 332.40507030260125 451.92016854794497 363.75966251429355C460.75304444283995 395.1142547259858 487.21739824500435 439.25859876195295 468.385505126706 465.83847744709965 "></path><path d="M434.613450784893 375.8397851820551C440.50203471482297 396.7428466565166 458.14493724959925 426.17240934716136 445.59034183740033 443.89232847059253C433.0357464252014 461.61224759402364 393.37935960570087 470.6664684100296 374.3513928063384 460.89539697452454C355.3234260069759 451.12432553901954 358.6187276619311 417.93169292533673 354.25610120046025 396.9911855801682C349.8934747389894 376.0506782349996 347.7659654241459 372.93971673630176 353.4107857912784 360.38096171771537C359.05560615841085 347.8222066991289 368.03574871635044 340.2140215585652 381.3512389626959 336.7091614909532C394.66672920904136 333.2043014233411 406.2288448441123 335.4054201241978 417.32513897373667 343.55763339317735C428.42143310336104 351.7098466621569 428.72486685496307 354.93672370759356 434.613450784893 375.8397851820551C440.50203471482297 396.7428466565166 458.14493724959925 426.17240934716136 445.59034183740033 443.89232847059253 "></path><path d="M417.30673302184107 387.9198925910275C420.25102498680604 398.3714233282583 429.07247625419416 413.0862046735807 422.79517854809467 421.94616423529624C416.51788084199524 430.8061237970118 396.68968743224497 435.33323420501483 387.1757040325637 430.4476984872623C377.6617206328825 425.56216276950977 379.30937146036007 408.96584646266837 377.1280582296247 398.49559279008406C374.94674499888924 388.0253391174998 373.8829903414675 386.4698583681509 376.7054005250337 380.19048085885765C379.52781070859993 373.9111033495645 384.01788198756975 370.10701077928263 390.6756271107425 368.3545807454766C397.3333722339152 366.60215071167056 403.11443005145065 367.7027100620989 408.66257711626287 371.77881669658865C414.2107241810751 375.85492333107845 414.36244105687604 377.46836185379675 417.30673302184107 387.9198925910275C420.25102498680604 398.3714233282583 429.07247625419416 413.0862046735807 422.79517854809467 421.94616423529624 "></path></g></svg>